<?xml version="1.0" standalone="no"?>
<!DOCTYPE svg PUBLIC "-//W3C//DTD SVG 20010904//EN"
 "http://www.w3.org/TR/2001/REC-SVG-20010904/DTD/svg10.dtd">
<svg version="1.0" xmlns="http://www.w3.org/2000/svg"
 width="592.000000pt" height="592.000000pt" viewBox="0 0 592.000000 592.000000"
 preserveAspectRatio="xMidYMid meet">
<metadata>
Created by potrace 1.14, written by Peter Selinger 2001-2017
</metadata>
<g transform="translate(0.000000,592.000000) scale(0.100000,-0.100000)"
fill="#000000" stroke="none">
<path d="M3083 5678 c-235 -19 -559 -167 -774 -353 -87 -75 -260 -265 -319
-350 -15 -22 -56 -96 -92 -165 -35 -69 -104 -198 -152 -287 -129 -237 -419
-918 -501 -1173 -41 -128 -53 -150 -84 -150 -14 0 -44 11 -66 25 -90 55 -116
18 -104 -147 8 -111 20 -171 46 -226 14 -30 14 -34 -3 -53 -30 -33 -79 -59
-118 -61 -32 -3 -34 -5 -19 -15 9 -7 27 -13 40 -13 28 0 28 -1 3 -47 -34 -63
-36 -113 -6 -169 17 -31 22 -52 16 -59 -12 -15 7 -35 26 -28 8 3 14 0 14 -7 0
-6 -5 -8 -11 -4 -8 5 -10 -6 -7 -36 3 -37 0 -45 -24 -63 -32 -24 -34 -35 -14
-92 8 -22 17 -52 20 -66 3 -14 23 -46 45 -71 l40 -45 -6 -76 c-3 -42 -10 -77
-14 -77 -5 0 -43 -17 -84 -37 -75 -36 -76 -36 -110 -20 -30 14 -43 15 -86 5
-86 -20 -135 -100 -145 -236 -3 -44 1 -61 22 -98 27 -45 27 -46 14 -137 -27
-201 -10 -604 40 -927 15 -96 40 -352 40 -412 0 -5 5 -8 11 -8 8 0 10 30 6
103 -7 142 -26 318 -36 342 -11 24 -27 153 -42 340 -13 156 -8 590 7 604 5 6
28 -17 59 -60 28 -38 55 -69 61 -69 5 0 28 -28 50 -61 39 -61 156 -169 182
-169 8 0 30 -9 48 -21 33 -20 33 -21 18 -45 -21 -31 0 -33 33 -2 26 25 40 19
24 -10 -14 -26 -14 -82 -1 -82 6 0 23 9 38 20 26 19 30 20 60 5 34 -17 56 -47
44 -60 -4 -4 3 -5 16 -2 22 5 31 -7 12 -18 -21 -13 -9 -24 14 -14 20 9 29 8
50 -7 14 -11 26 -26 26 -35 0 -9 7 -22 15 -29 8 -7 15 -21 15 -31 0 -31 17
-30 30 2 16 37 21 32 55 -51 15 -36 33 -78 40 -95 39 -93 121 -389 141 -513
l7 -42 445 0 c245 0 443 2 441 4 -14 13 -238 108 -260 110 -22 2 -45 17 -142
96 -10 8 -32 30 -49 48 -21 21 -41 32 -60 32 -16 0 -36 9 -45 20 -10 11 -25
20 -35 20 -27 0 -119 43 -173 82 -28 20 -63 43 -80 52 -60 31 -76 52 -65 80
13 36 35 33 143 -17 50 -24 130 -51 177 -61 47 -10 102 -26 122 -36 20 -10 39
-13 40 -8 2 6 14 5 31 -1 63 -24 90 -2 60 49 -13 22 -29 32 -67 41 -28 6 -80
24 -114 40 -36 17 -72 27 -82 24 -21 -7 -156 35 -212 66 -21 11 -59 22 -86 26
-45 5 -50 8 -61 40 -11 30 -11 37 3 51 12 12 20 13 38 5 13 -6 62 -14 110 -17
47 -3 128 -16 180 -30 51 -13 117 -27 147 -30 29 -4 58 -9 63 -12 5 -3 28 -7
51 -9 23 -2 53 -6 67 -9 14 -4 32 -2 40 4 13 9 13 12 -2 24 -18 13 -185 49
-283 61 -27 3 -77 12 -110 20 -33 8 -96 19 -139 26 -96 15 -180 54 -184 86 -2
15 2 23 11 23 9 0 17 5 19 11 5 16 103 30 136 19 15 -5 65 -14 112 -19 146
-16 315 -42 325 -50 6 -4 30 -7 55 -6 25 1 61 -4 80 -10 37 -13 84 -3 78 16
-2 6 -6 9 -9 7 -3 -2 -13 5 -23 15 -10 9 -30 17 -46 17 -16 0 -41 5 -57 11
-15 6 -53 17 -83 25 -30 8 -64 18 -75 21 -11 3 -32 7 -48 10 -15 3 -30 9 -33
14 -3 5 -27 9 -55 9 -89 0 -242 29 -264 50 -18 19 -18 21 -3 37 12 11 33 16
63 16 24 -1 43 3 40 7 -3 5 41 10 97 12 149 4 279 -14 438 -62 92 -28 137 -38
190 -44 14 -1 35 -8 47 -14 21 -12 21 -11 6 18 -11 23 -20 29 -34 25 -13 -5
-17 -2 -14 8 8 19 -32 67 -56 67 -41 0 -93 174 -58 196 6 3 50 -21 97 -54 48
-32 103 -67 122 -77 19 -10 43 -29 54 -44 40 -51 209 -221 226 -226 9 -3 45
-54 80 -113 36 -59 97 -156 137 -216 52 -79 78 -129 95 -185 19 -65 30 -84 77
-131 142 -143 144 -145 144 -205 0 -54 0 -55 28 -55 28 0 29 2 29 45 0 25 3
45 8 45 21 -1 42 -30 42 -59 0 -26 4 -32 18 -29 9 2 16 10 15 16 -4 17 12 15
27 -3 10 -12 48 -15 220 -15 l208 0 -27 29 c-15 16 -34 48 -43 70 -16 39 -16
42 3 51 10 6 19 15 19 21 0 6 10 20 23 31 l22 20 -22 -5 c-28 -6 -40 9 -15 17
50 16 102 179 83 264 -5 26 -8 48 -6 50 10 10 47 -29 69 -73 14 -28 26 -53 26
-56 0 -4 7 -24 16 -44 12 -29 18 -35 25 -24 19 30 9 -77 -11 -114 -25 -46 -17
-49 10 -4 15 24 20 50 20 109 0 114 -24 169 -104 241 -36 31 -69 57 -74 57 -6
0 -12 7 -16 15 -3 8 -12 15 -20 15 -8 0 -30 14 -48 31 -18 17 -50 40 -72 52
-86 49 -82 45 -55 50 18 3 16 5 -10 6 l-35 1 41 35 c23 19 49 56 62 85 25 57
56 249 67 412 l7 107 97 98 c94 95 178 210 234 321 26 50 28 52 69 52 45 0 98
-24 140 -62 14 -13 40 -34 59 -48 l33 -25 -27 33 c-18 21 -26 41 -24 55 18 88
22 340 12 772 -5 209 -5 210 9 120 8 -49 17 -124 20 -165 8 -119 95 -546 149
-730 32 -108 32 -111 -11 -153 l-39 -38 -25 25 c-13 13 -32 34 -41 47 -10 13
2 -19 26 -71 25 -52 48 -113 52 -135 3 -22 12 -47 20 -55 7 -8 18 -38 25 -65
6 -28 35 -102 65 -165 29 -63 55 -128 57 -145 5 -30 77 -216 104 -267 7 -15
20 -44 28 -65 26 -72 65 -158 65 -147 0 6 -19 60 -41 120 -32 84 -43 131 -50
204 -10 123 -46 303 -102 515 -54 201 -64 286 -42 338 14 35 45 159 59 240 4
21 11 35 16 32 12 -7 4 456 -10 580 -6 55 -13 127 -16 160 -3 33 -23 168 -46
300 -22 132 -40 259 -40 283 0 23 -3 40 -6 38 -4 -2 -8 26 -8 63 -2 75 -110
745 -150 926 -73 332 -213 629 -378 804 -169 179 -271 248 -531 360 -95 42
-244 73 -360 78 -60 2 -137 4 -170 6 -33 1 -97 -1 -142 -5z m2 -1354 c-9 -33
-25 -87 -36 -121 -20 -62 -21 -62 -52 -56 -18 3 -35 9 -40 12 -6 6 134 231
141 225 2 -1 -4 -28 -13 -60z m5 -81 c-19 -64 -36 -111 -38 -105 -2 6 10 56
27 110 17 54 31 104 31 112 0 7 3 10 6 7 4 -4 -8 -59 -26 -124z m707 -230
c-16 -87 -31 -160 -33 -161 -1 -2 -19 1 -38 8 l-36 11 30 59 c25 50 68 153 93
223 16 44 11 5 -16 -140z m-784 98 c4 -4 -2 -33 -12 -64 -11 -31 -16 -57 -12
-57 4 0 15 25 25 55 9 30 21 55 27 55 5 0 9 -1 9 -3 0 -3 -62 -188 -75 -222
-4 -11 4 -2 19 20 32 51 33 41 2 -30 -14 -30 -23 -55 -20 -55 8 0 107 102 122
125 10 17 11 13 7 -30 -4 -27 -10 -68 -15 -90 -10 -45 -7 -53 14 -36 11 9 14
8 12 -6 -1 -16 9 -18 79 -19 66 -1 89 -6 132 -28 59 -30 75 -27 113 21 l22 28
-21 -36 c-26 -45 -26 -46 1 -60 20 -11 26 -7 61 32 l39 44 -26 -42 c-19 -32
-22 -43 -12 -43 13 0 66 54 66 68 0 4 19 27 41 52 l40 45 -37 -60 c-20 -33
-44 -69 -53 -80 -16 -20 -16 -20 6 -1 12 10 41 47 64 82 23 35 45 64 49 64 4
0 23 -7 43 -15 l35 -14 -18 -78 c-10 -43 -18 -89 -18 -103 1 -14 -2 -38 -6
-55 -5 -19 -4 -25 2 -17 7 10 12 9 23 -4 9 -12 10 -15 2 -10 -7 4 -13 3 -13
-3 0 -5 5 -13 11 -16 13 -9 32 17 90 121 25 46 49 81 52 77 13 -13 7 -63 -18
-139 -14 -42 -25 -87 -25 -100 0 -12 -4 -25 -9 -28 -5 -3 -7 -16 -3 -28 l5
-22 -23 22 c-13 12 -45 33 -70 45 -29 14 -45 28 -42 37 3 9 -1 11 -13 7 -9 -4
-49 -12 -89 -18 -39 -7 -75 -16 -81 -22 -7 -6 -2 -7 13 -2 37 11 25 -1 -43
-40 -78 -46 -86 -62 -12 -27 71 35 160 41 203 13 64 -40 109 -122 113 -206 2
-43 -3 -57 -30 -94 -23 -33 -27 -42 -13 -37 16 6 16 5 -2 -15 l-19 -22 30 17
c29 17 75 75 75 96 0 15 11 12 26 -7 17 -23 17 -10 0 54 -15 57 -13 63 21 63
33 0 28 16 -8 26 -26 7 -35 18 -51 62 -12 31 -24 50 -30 46 -7 -5 -8 -2 -3 5
6 10 11 10 23 -2 13 -14 18 -11 48 25 19 22 34 45 34 51 0 6 2 8 5 5 3 -3 -2
-36 -11 -72 l-17 -67 41 -39 c22 -21 38 -41 35 -43 -2 -3 0 -8 6 -11 5 -3 19
6 30 20 36 46 23 13 -29 -75 -65 -109 -113 -167 -158 -191 -25 -13 -31 -19
-18 -20 10 0 40 13 65 28 25 16 54 31 64 35 28 10 20 -17 -16 -54 -56 -58
-152 -191 -197 -271 -24 -42 -63 -101 -87 -132 -80 -101 -231 -182 -418 -224
-79 -18 -309 -67 -357 -77 -15 -3 -132 64 -148 84 -3 3 -41 36 -85 73 -44 36
-89 77 -101 89 -21 24 -54 126 -54 167 0 12 -4 30 -9 40 -5 9 -15 51 -21 92
-6 41 -18 118 -26 170 -19 119 -30 591 -15 617 9 15 10 12 7 -14 -2 -18 1 -33
5 -33 5 0 10 8 11 18 0 9 4 -3 8 -28 6 -41 7 -42 8 -11 1 19 11 54 22 77 17
34 33 48 81 73 67 34 114 43 63 12 -61 -37 -114 -129 -114 -196 0 -42 20 -94
43 -114 9 -7 14 -18 10 -25 -3 -6 -2 -8 2 -3 5 4 18 -1 29 -11 12 -10 38 -26
59 -35 37 -17 38 -17 32 2 -5 15 0 21 23 26 55 12 131 137 131 215 1 93 -33
150 -98 169 -35 10 -35 11 14 6 74 -8 109 -37 156 -130 22 -44 38 -73 36 -65
-2 8 -8 26 -12 40 -6 21 -2 19 30 -15 38 -41 38 -32 0 20 -12 17 -25 41 -28
54 -6 23 -5 23 24 -5 43 -42 35 -14 -12 40 l-42 47 29 -6 c16 -3 23 -2 17 1
-7 3 -13 11 -13 17 0 6 -7 19 -17 29 -13 14 -13 18 -2 18 28 1 -67 41 -104 44
-30 3 -35 1 -26 -10 9 -12 -1 -14 -60 -14 -46 0 -70 4 -66 10 4 6 10 8 14 6 4
-3 13 -1 21 5 12 7 12 9 -3 9 -10 0 -15 4 -12 10 3 5 -7 2 -23 -7 -17 -10 -28
-22 -26 -28 5 -13 -112 -54 -137 -48 -10 3 -16 9 -14 14 11 17 113 69 137 69
14 0 40 15 63 38 33 31 37 33 22 10 -10 -16 -14 -28 -10 -28 4 0 18 12 31 28
22 25 23 25 19 5 -4 -19 -2 -21 11 -14 21 12 103 97 167 174 48 58 50 59 90
52 22 -3 43 -9 48 -14z m-1436 -57 c-14 -33 -53 -138 -87 -234 -34 -96 -80
-224 -102 -285 -23 -60 -53 -155 -68 -210 -35 -126 -45 -151 -64 -158 -24 -10
-20 21 19 152 65 219 162 470 265 689 55 117 79 147 37 46z m1282 -278 c31
-33 15 -33 -33 -1 -20 14 -41 25 -46 25 -11 0 -13 13 -4 23 9 9 55 -17 83 -47z
m-915 -66 c-40 -73 -111 -154 -102 -115 6 23 130 197 136 190 2 -2 -13 -36
-34 -75z m512 49 c3 -6 -9 -24 -27 -39 -42 -36 -62 -39 -50 -7 5 12 14 21 19
20 6 -2 14 6 17 17 7 22 30 27 41 9z m1441 -21 c-3 -8 -6 -5 -6 6 -1 11 2 17
5 13 3 -3 4 -12 1 -19z m-1944 -115 c-10 -15 -13 -24 -8 -21 7 4 11 -69 12
-210 2 -198 1 -215 -14 -197 -31 41 -82 159 -99 230 l-17 74 55 73 c30 40 61
84 69 98 13 25 14 25 17 3 2 -12 -5 -34 -15 -50z m1792 37 c-4 -12 -9 -19 -12
-17 -3 3 -2 15 2 27 4 12 9 19 12 17 3 -3 2 -15 -2 -27z m-1055 -45 c17 -20 5
-31 -42 -39 -44 -8 -46 -3 -15 30 26 28 40 30 57 9z m-142 -57 c-10 -51 46
-103 77 -71 9 8 19 13 22 9 3 -3 13 0 21 7 13 10 15 9 9 -5 -3 -10 -2 -20 3
-23 5 -3 7 -12 4 -19 -3 -8 -1 -17 5 -21 19 -11 -7 -45 -34 -45 -13 0 -26 -4
-29 -8 -4 -7 -45 -8 -53 -2 -2 2 -9 3 -15 4 -7 0 -23 21 -36 45 -18 35 -20 46
-10 60 10 13 10 14 -1 4 -7 -6 -20 -9 -27 -6 -22 8 -16 33 7 33 12 0 17 4 14
11 -4 6 1 17 11 24 24 18 36 19 32 3z m-809 -148 c7 -19 61 -131 118 -247 115
-231 116 -235 47 -247 -43 -9 -77 1 -70 19 5 13 -28 31 -69 37 -27 4 -42 60
-26 95 15 33 9 39 -23 18 l-25 -17 -7 39 c-14 67 -10 325 4 351 13 23 14 23
26 5 7 -10 18 -34 25 -53z m2015 45 c11 -8 17 -17 14 -20 -3 -3 -16 3 -29 14
-27 23 -14 28 15 6z m1065 -330 c66 -392 108 -794 90 -855 -6 -21 -7 -18 -8
17 -2 81 -40 332 -76 503 -43 202 -55 300 -48 410 3 61 7 109 9 107 2 -1 17
-84 33 -182z m-2501 -200 l0 -50 -14 70 c-7 39 -12 102 -12 140 l1 70 12 -90
c7 -49 13 -112 13 -140z m1568 -1 c-23 -56 -79 -168 -92 -183 -2 -2 -6 -2 -9
1 -3 3 11 39 32 79 20 41 38 82 40 92 3 20 46 87 52 82 2 -2 -9 -34 -23 -71z
m928 -149 c74 -400 96 -618 76 -776 -12 -100 -28 -169 -41 -169 -18 0 -45 304
-59 655 -5 149 -12 312 -14 364 -2 52 0 88 4 80 4 -8 19 -77 34 -154z m-227
93 c-3 -8 -6 -5 -6 6 -1 11 2 17 5 13 3 -3 4 -12 1 -19z m-827 -99 c-10 -27
-27 -57 -39 -65 -11 -8 -21 -13 -21 -10 0 10 69 126 75 126 1 0 -6 -23 -15
-51z m-1353 -91 c-2 -13 -4 -5 -4 17 -1 22 1 32 4 23 2 -10 2 -28 0 -40z
m1303 -14 c0 -8 -19 -13 -24 -6 -3 5 1 9 9 9 8 0 15 -2 15 -3z m1 -41 c7 -10
9 -15 5 -11 -5 4 -14 0 -21 -9 -10 -14 -12 -13 -9 8 4 36 5 37 25 12z m-2341
-138 c0 -34 -37 -105 -54 -105 -9 0 -16 17 -20 45 -9 60 -10 58 27 72 45 16
47 16 47 -12z m1250 -95 c26 -25 113 -96 142 -114 32 -21 74 -18 176 13 l62
19 -1 -21 c0 -12 -4 -48 -8 -80 -5 -41 -3 -66 5 -83 15 -29 7 -30 -62 -13 -28
7 -51 21 -60 35 -13 19 -20 21 -40 13 l-25 -9 20 29 c22 31 21 35 -30 60 -19
10 -32 10 -46 2 -39 -20 -94 -1 -141 50 -24 26 -53 50 -65 53 -16 4 -22 13
-23 33 -1 15 -6 50 -11 77 l-11 48 51 -48 c28 -27 58 -56 67 -64z m1786 -35
c8 -95 -4 -145 -49 -211 -33 -49 -70 -77 -48 -37 23 43 63 222 69 303 4 70 7
80 14 55 5 -16 11 -66 14 -110z m-3172 84 c-3 -5 -10 -7 -15 -3 -5 3 -7 10 -3
15 3 5 10 7 15 3 5 -3 7 -10 3 -15z m3193 -256 c-4 -20 -2 -42 2 -47 5 -6 11
-55 13 -109 l3 -97 -38 2 c-38 3 -38 3 -32 38 l6 35 -16 -31 c-11 -22 -26 -34
-47 -38 -47 -9 -78 -7 -78 5 0 30 48 102 95 143 39 33 56 57 66 90 16 55 34
61 26 9z m-87 -269 c0 -10 -85 -162 -118 -212 -38 -56 -168 -199 -193 -213
-19 -10 -20 -7 -18 82 l2 93 45 45 c44 45 121 137 153 183 13 19 27 24 73 26
31 2 56 0 56 -4z m-589 -116 c-6 -18 -20 -44 -31 -58 l-20 -25 0 23 c0 26 14
57 38 85 21 24 26 14 13 -25z m1081 -143 c58 -176 116 -424 142 -612 8 -53 -6
-56 -23 -5 -23 67 -73 186 -104 247 -16 33 -31 72 -33 87 -2 15 -15 60 -29
100 -15 40 -33 97 -41 127 l-14 54 37 32 c21 19 40 30 43 27 3 -4 13 -29 22
-57z m-1152 41 c0 -3 -4 -8 -10 -11 -5 -3 -10 -1 -10 4 0 6 5 11 10 11 6 0 10
-2 10 -4z m4 -136 c-36 -69 -57 -91 -72 -75 -4 3 1 12 11 20 10 7 15 19 11 28
-5 15 73 113 83 103 3 -3 -12 -37 -33 -76z m266 46 c0 -2 -8 -10 -17 -17 -16
-13 -17 -12 -4 4 13 16 21 21 21 13z m-15 -216 c-3 -5 -12 -10 -18 -10 -7 0
-6 4 3 10 19 12 23 12 15 0z m-124 -67 c13 -16 12 -17 -3 -4 -17 13 -22 21
-14 21 2 0 10 -8 17 -17z m83 -411 c3 -5 -11 -24 -32 -43 -25 -23 -29 -25 -13
-6 14 15 21 27 17 27 -5 0 -3 7 4 15 14 17 17 18 24 7z m-2444 -148 c0 -8 -4
-14 -10 -14 -5 0 -10 9 -10 21 0 11 5 17 10 14 6 -3 10 -13 10 -21z m2421
-255 c54 -19 114 -73 128 -116 18 -54 4 -128 -24 -128 -11 0 -20 7 -21 15 0 8
-10 34 -22 57 -26 51 -26 50 -4 56 13 3 11 6 -10 15 -34 14 -108 112 -84 112
1 0 18 -5 37 -11z m119 -330 c0 -5 -9 -9 -20 -9 -22 0 -27 16 -7 23 15 5 27
-1 27 -14z"/>
<path d="M2504 3804 c-18 -14 -18 -14 6 -3 31 14 36 19 24 19 -6 0 -19 -7 -30
-16z"/>
<path d="M3603 3513 c9 -2 23 -2 30 0 6 3 -1 5 -18 5 -16 0 -22 -2 -12 -5z"/>
<path d="M3536 3420 c-46 -14 -114 -87 -136 -148 -24 -63 -25 -72 -5 -72 8 0
15 6 15 14 0 7 7 19 15 26 12 10 15 10 15 -2 0 -20 36 -52 50 -43 6 4 23 9 38
11 25 4 28 1 30 -25 1 -16 -2 -33 -8 -36 -6 -4 -8 -11 -5 -16 4 -5 2 -9 -4 -9
-6 0 -7 -8 -4 -17 5 -12 2 -15 -10 -10 -10 4 -16 2 -14 -5 1 -6 -11 -12 -27
-15 -31 -4 -76 28 -76 54 0 8 -5 24 -11 35 -16 30 -30 2 -16 -31 17 -39 63
-102 70 -94 4 3 9 -1 12 -9 4 -10 14 -14 26 -11 24 7 25 23 2 24 -10 1 -1 6
20 11 52 14 120 83 140 143 10 27 17 75 17 108 0 54 -3 62 -34 93 -35 35 -50
39 -100 24z m50 -115 c7 -18 -13 -45 -33 -45 -17 0 -27 24 -19 45 7 20 45 19
52 0z m-66 -31 c0 -8 -5 -12 -10 -9 -6 4 -8 11 -5 16 9 14 15 11 15 -7z"/>
<path d="M2655 3340 c4 -6 11 -8 16 -5 14 9 11 15 -7 15 -8 0 -12 -5 -9 -10z"/>
<path d="M3530 3025 c0 -8 2 -15 4 -15 2 0 6 7 10 15 3 8 1 15 -4 15 -6 0 -10
-7 -10 -15z"/>
<path d="M3590 3020 c0 -5 5 -10 11 -10 5 0 7 5 4 10 -3 6 -8 10 -11 10 -2 0
-4 -4 -4 -10z"/>
<path d="M3065 2979 c-4 -6 -5 -12 -2 -15 2 -3 7 2 10 11 7 17 1 20 -8 4z"/>
<path d="M2444 2870 c0 -58 1 -81 3 -52 2 28 2 76 0 105 -2 28 -3 5 -3 -53z"/>
<path d="M2868 2689 c-27 -20 -39 -59 -18 -59 6 0 10 8 10 19 0 25 43 54 59
38 17 -17 13 -38 -11 -65 -15 -16 -18 -23 -8 -20 20 6 60 66 60 89 0 26 -56
25 -92 -2z"/>
<path d="M2525 3549 c-4 -6 -5 -12 -2 -15 2 -3 7 2 10 11 7 17 1 20 -8 4z"/>
<path d="M4408 2110 c-4 -14 -9 -36 -13 -50 -4 -16 0 -12 10 9 9 19 14 42 12
50 -2 10 -5 7 -9 -9z"/>
<path d="M4785 1303 c21 -35 39 -63 42 -63 7 0 -47 92 -64 110 -8 8 2 -13 22
-47z"/>
<path d="M4591 1324 c0 -11 3 -14 6 -6 3 7 2 16 -1 19 -3 4 -6 -2 -5 -13z"/>
<path d="M2499 1240 c24 -22 48 -40 54 -40 5 0 -10 18 -34 40 -24 21 -48 39
-54 39 -5 0 10 -18 34 -39z"/>
<path d="M4582 1260 c0 -14 2 -19 5 -12 2 6 2 18 0 25 -3 6 -5 1 -5 -13z"/>
<path d="M4860 1170 c11 -22 23 -40 25 -40 3 0 -4 18 -15 40 -11 22 -23 40
-25 40 -3 0 4 -18 15 -40z"/>
<path d="M4175 1141 c15 -68 41 -271 36 -271 -9 0 -56 78 -85 140 -14 30 -26
48 -26 40 0 -17 52 -120 83 -163 52 -75 175 -319 220 -437 50 -129 66 -205 74
-338 4 -80 10 -112 19 -112 16 0 9 131 -12 245 -24 127 -62 227 -157 415 -83
165 -89 181 -102 278 -8 56 -22 131 -31 165 -17 66 -31 95 -19 38z"/>
<path d="M4466 1035 c-7 -134 -39 -365 -56 -409 -12 -33 -12 -36 -1 -36 26 0
58 199 67 418 4 83 5 152 2 152 -3 0 -8 -56 -12 -125z"/>
<path d="M2640 973 c0 -22 43 -48 84 -49 22 -1 67 -5 99 -9 36 -5 57 -4 57 2
0 6 -30 13 -67 17 -117 11 -135 15 -154 32 -11 10 -19 13 -19 7z"/>
<path d="M3923 813 c15 -2 37 -2 50 0 12 2 0 4 -28 4 -27 0 -38 -2 -22 -4z"/>
<path d="M4022 799 c-63 -4 -115 -9 -118 -11 -2 -3 55 -4 126 -4 76 1 129 5
127 10 -5 14 -9 14 -135 5z"/>
<path d="M1221 705 c114 -214 399 -708 406 -701 6 5 -30 76 -72 141 -17 28
-85 144 -151 260 -65 116 -123 217 -129 226 -5 9 -22 38 -37 65 -14 27 -34 58
-43 69 -9 11 3 -16 26 -60z"/>
<path d="M700 608 c-3 -37 -1 -63 3 -59 4 4 7 35 5 67 l-3 59 -5 -67z"/>
<path d="M5116 580 c3 -14 11 -32 16 -40 6 -10 7 -7 2 10 -3 14 -11 32 -16 40
-6 10 -7 7 -2 -10z"/>
<path d="M701 493 c-1 -6 -4 -20 -7 -30 -5 -17 -5 -17 6 0 6 10 9 23 6 30 -3
9 -5 9 -5 0z"/>
<path d="M5146 487 c3 -10 9 -15 12 -12 3 3 0 11 -7 18 -10 9 -11 8 -5 -6z"/>
<path d="M5195 350 c3 -14 10 -50 16 -80 6 -30 13 -57 16 -60 10 -9 -8 90 -23
128 -8 20 -12 26 -9 12z"/>
<path d="M872 300 c0 -14 2 -19 5 -12 2 6 2 18 0 25 -3 6 -5 1 -5 -13z"/>
<path d="M4941 283 c-18 -9 -56 -44 -83 -77 -61 -73 -143 -194 -136 -201 3 -3
25 25 50 62 137 206 207 252 276 182 17 -17 41 -56 53 -86 12 -29 23 -52 25
-50 5 5 -28 88 -51 124 -17 29 -68 63 -92 63 -4 0 -23 -8 -42 -17z"/>
<path d="M862 250 c0 -14 2 -19 5 -12 2 6 2 18 0 25 -3 6 -5 1 -5 -13z"/>
<path d="M836 114 c-10 -58 -16 -108 -13 -110 6 -6 11 19 28 129 6 43 10 80 7
82 -2 2 -12 -43 -22 -101z"/>
<path d="M5228 147 c3 -42 0 -60 -17 -87 -21 -36 -27 -60 -13 -60 13 0 34 74
39 138 3 34 1 62 -4 62 -6 0 -8 -24 -5 -53z"/>
</g>
</svg>
